<?xml version="1.0" encoding="utf-8"?>
<!-- Generator: Adobe Illustrator 21.1.0, SVG Export Plug-In . SVG Version: 6.00 Build 0)  -->
<svg version="1.1" id="Camada_1" xmlns="http://www.w3.org/2000/svg" xmlns:xlink="http://www.w3.org/1999/xlink" x="0px" y="0px"
	 viewBox="0 0 220.8 94" style="enable-background:new 0 0 220.8 94;" xml:space="preserve">
<style type="text/css">
	.st0{fill:#F47958;}
	.st1{fill:#FFFFFF;}
	.st2{opacity:0.35;enable-background:new    ;}
	.st3{fill:none;}
	.st4{enable-background:new    ;}
</style>
<path class="st0" d="M18.7,0h56.4c5.2,0,9.9,2.2,13.2,5.5c3.5,3.3,5.5,8,5.5,13.2v56.4c0,5.2-2,9.9-5.5,13.2l0,0
	c-3.3,3.3-8,5.5-13.2,5.5H18.7c-5.2,0-9.9-2.2-13.2-5.5l0,0C2.2,85,0,80.3,0,75.1V18.7c0-5.2,2.2-9.9,5.5-13.2l0,0
	C9,2.2,13.5,0,18.7,0L18.7,0z"/>
<path class="st1" d="M4.2,30.8c0-2,0.7-3.7,2.2-5.1s3.2-2.1,5.2-2.1c2.1,0,3.8,0.7,5.3,2.1c1.4,1.4,2.1,3.2,2.1,5.2
	c0,2.1-0.7,3.8-2.2,5.2c-1.4,1.4-3.2,2.1-5.3,2.1s-3.8-0.7-5.2-2.1C4.9,34.7,4.2,33,4.2,30.8z M7.5,30.9c0,1.4,0.4,2.5,1.1,3.3
	c0.8,0.8,1.8,1.2,3,1.2c1.3,0,2.3-0.4,3-1.2c0.8-0.8,1.1-1.9,1.1-3.2c0-1.4-0.4-2.4-1.1-3.2c-0.8-0.8-1.8-1.2-3-1.2s-2.2,0.4-3,1.2
	C7.8,28.5,7.5,29.6,7.5,30.9z"/>
<path class="st1" d="M28.2,24h3.3v1.3c1.1-1.1,2.4-1.7,3.8-1.7c1.6,0,2.9,0.5,3.8,1.5c0.8,0.9,1.2,2.3,1.2,4.2v8.5h-3.2V30
	c0-1.4-0.2-2.3-0.6-2.8c-0.4-0.5-1-0.8-2-0.8c-1.1,0-1.8,0.4-2.3,1.1c-0.4,0.7-0.7,1.9-0.7,3.6v6.7h-3.2L28.2,24L28.2,24z"/>
<path class="st1" d="M62.8,31.7h-10c0.1,1.1,0.5,2,1.1,2.7c0.7,0.7,1.5,1,2.5,1c0.8,0,1.5-0.2,2-0.6c0.5-0.4,1.1-1.1,1.8-2.1
	l2.7,1.5c-0.4,0.7-0.9,1.3-1.3,1.8c-0.5,0.5-1,0.9-1.5,1.3S59,37.9,58.4,38c-0.6,0.2-1.3,0.2-2,0.2c-2.1,0-3.7-0.7-5-2
	s-1.9-3.1-1.9-5.3s0.6-4,1.8-5.3s2.9-2,4.9-2c2,0,3.7,0.7,4.8,2c1.2,1.3,1.8,3.1,1.8,5.4V31.7z M59.5,29.1c-0.4-1.7-1.5-2.6-3.2-2.6
	c-0.4,0-0.8,0.1-1.1,0.2s-0.7,0.3-0.9,0.5c-0.3,0.2-0.5,0.5-0.7,0.8s-0.4,0.7-0.5,1.1H59.5z"/>
<path class="st1" d="M31.4,43.8v24.1h-3.2V43.8H31.4z"/>
<path class="st1" d="M41.3,48.3c0-0.6,0.2-1,0.6-1.5s0.9-0.6,1.5-0.6s1.1,0.2,1.5,0.6c0.4,0.4,0.6,0.9,0.6,1.5s-0.2,1.1-0.6,1.5
	c-0.4,0.4-0.9,0.6-1.5,0.6s-1.1-0.2-1.5-0.6S41.3,48.8,41.3,48.3z M45,54v13.9h-3.2V54H45z"/>
<path class="st1" d="M54.9,54h3.2v1.3c1.1-1.1,2.4-1.7,3.8-1.7c1.6,0,2.9,0.5,3.8,1.5c0.8,0.9,1.2,2.3,1.2,4.2v8.5h-3.2V60
	c0-1.4-0.2-2.3-0.6-2.8s-1-0.8-2-0.8c-1.1,0-1.8,0.4-2.3,1.1c-0.4,0.7-0.7,1.9-0.7,3.6v6.7h-3.2C54.9,67.8,54.9,54,54.9,54z"/>
<path class="st1" d="M89.4,61.7h-9.9c0.1,1.1,0.5,2,1.1,2.7c0.7,0.7,1.5,1,2.5,1c0.8,0,1.5-0.2,2-0.6s1.1-1.1,1.8-2.1l2.7,1.5
	c-0.4,0.7-0.9,1.3-1.3,1.8s-1,0.9-1.5,1.3c-0.5,0.3-1.1,0.6-1.7,0.7c-0.6,0.2-1.3,0.2-2,0.2c-2.1,0-3.7-0.7-5-2s-1.9-3.1-1.9-5.3
	s0.6-4,1.8-5.3c1.2-1.3,2.9-2,4.9-2s3.7,0.7,4.8,2c1.2,1.3,1.8,3.1,1.8,5.4L89.4,61.7z M86.2,59.1c-0.4-1.7-1.5-2.6-3.2-2.6
	c-0.4,0-0.8,0.1-1.1,0.2S81.2,57,81,57.2s-0.5,0.5-0.7,0.8s-0.4,0.7-0.5,1.1H86.2z"/>
<g class="st2">
	<rect x="28.2" class="st1" width="3.2" height="94"/>
</g>
<rect x="-6.5" y="101.3" class="st3" width="107" height="43"/>
<g class="st4">
	<path class="st1" d="M127.2,32.8L127.2,32.8l-0.2,0.1c-0.1,0-0.2,0-0.3-0.1c-0.1-0.1-0.3-0.2-0.5-0.3c-0.2-0.1-0.5-0.2-0.8-0.3
		c-0.3-0.1-0.7-0.1-1.2-0.1c-0.6,0-1.2,0.1-1.7,0.3c-0.5,0.2-0.9,0.5-1.2,1c-0.3,0.4-0.6,0.9-0.8,1.5c-0.2,0.6-0.3,1.3-0.3,2
		c0,0.8,0.1,1.5,0.3,2c0.2,0.6,0.4,1.1,0.8,1.5s0.7,0.7,1.2,0.9s1,0.3,1.6,0.3c0.5,0,1-0.1,1.3-0.2c0.4-0.1,0.6-0.3,0.9-0.4
		c0.2-0.1,0.4-0.3,0.5-0.4s0.2-0.2,0.3-0.2c0.1,0,0.2,0,0.2,0.1l0.3,0.4c-0.2,0.2-0.4,0.4-0.6,0.6c-0.2,0.2-0.5,0.4-0.9,0.5
		c-0.3,0.1-0.7,0.2-1.1,0.3c-0.4,0.1-0.8,0.1-1.2,0.1c-0.7,0-1.3-0.1-1.9-0.4s-1.1-0.6-1.5-1.1s-0.7-1.1-1-1.8
		c-0.1-0.6-0.2-1.4-0.2-2.3c0-0.8,0.1-1.6,0.3-2.3c0.2-0.7,0.5-1.3,1-1.8c0.4-0.5,0.9-0.9,1.6-1.2c0.6-0.3,1.3-0.4,2.1-0.4
		c0.7,0,1.3,0.1,1.9,0.3c0.6,0.2,1,0.5,1.4,0.9L127.2,32.8z"/>
	<path class="st1" d="M134.2,31.1c0.8,0,1.5,0.1,2.1,0.4c0.6,0.3,1.1,0.6,1.6,1.1s0.7,1.1,1,1.8c0.2,0.7,0.3,1.5,0.3,2.3
		c0,0.9-0.1,1.6-0.3,2.3c-0.2,0.7-0.5,1.3-1,1.8s-0.9,0.9-1.6,1.1c-0.6,0.3-1.3,0.4-2.1,0.4s-1.5-0.1-2.1-0.4
		c-0.6-0.3-1.1-0.6-1.6-1.1s-0.8-1.1-1-1.8c-0.2-0.7-0.3-1.5-0.3-2.3c0-0.9,0.1-1.6,0.3-2.3c0.2-0.7,0.5-1.3,1-1.8s1-0.9,1.6-1.1
		C132.7,31.3,133.4,31.1,134.2,31.1z M134.2,41.6c0.7,0,1.2-0.1,1.7-0.3c0.5-0.2,0.9-0.5,1.2-1c0.3-0.4,0.6-0.9,0.7-1.5
		c0.2-0.6,0.2-1.3,0.2-2s-0.1-1.4-0.2-2c-0.2-0.6-0.4-1.1-0.7-1.5c-0.3-0.4-0.7-0.7-1.2-1c-0.5-0.2-1.1-0.3-1.7-0.3
		c-0.7,0-1.2,0.1-1.7,0.3c-0.5,0.2-0.9,0.6-1.2,1c-0.3,0.4-0.6,0.9-0.7,1.5c-0.2,0.6-0.2,1.3-0.2,2s0.1,1.4,0.2,2
		c0.2,0.6,0.4,1.1,0.7,1.5c0.3,0.4,0.7,0.7,1.2,1C133,41.5,133.6,41.6,134.2,41.6z"/>
	<path class="st1" d="M142,42.3V31.4h0.6c0.2,0,0.3,0.1,0.3,0.3l0.1,1.7c0.5-0.6,1.1-1.1,1.7-1.5c0.7-0.4,1.4-0.6,2.2-0.6
		c0.6,0,1.1,0.1,1.6,0.3c0.5,0.2,0.8,0.5,1.1,0.8c0.3,0.4,0.5,0.8,0.7,1.3c0.2,0.5,0.2,1.1,0.2,1.7v7h-1v-7c0-1-0.2-1.8-0.7-2.4
		s-1.2-0.9-2.2-0.9c-0.7,0-1.4,0.2-2,0.6c-0.6,0.4-1.2,0.9-1.6,1.5v8.2L142,42.3L142,42.3z"/>
	<path class="st1" d="M153.9,42.3V31.4h0.6c0.2,0,0.3,0.1,0.3,0.3l0.1,1.7c0.5-0.6,1.1-1.1,1.7-1.5c0.7-0.4,1.4-0.6,2.2-0.6
		c0.6,0,1.1,0.1,1.6,0.3c0.5,0.2,0.8,0.5,1.1,0.8c0.3,0.4,0.5,0.8,0.7,1.3c0.2,0.5,0.2,1.1,0.2,1.7v7h-1v-7c0-1-0.2-1.8-0.7-2.4
		s-1.2-0.9-2.2-0.9c-0.7,0-1.4,0.2-2,0.6c-0.6,0.4-1.2,0.9-1.6,1.5v8.2L153.9,42.3L153.9,42.3z"/>
	<path class="st1" d="M169.9,31.1c0.6,0,1.2,0.1,1.7,0.3c0.5,0.2,1,0.5,1.4,0.9c0.4,0.4,0.7,0.9,0.9,1.5c0.2,0.6,0.3,1.3,0.3,2
		c0,0.2,0,0.3-0.1,0.3c0,0.1-0.1,0.1-0.2,0.1H166v0.2c0,0.8,0.1,1.5,0.3,2.2c0.2,0.6,0.5,1.1,0.8,1.6c0.4,0.4,0.8,0.7,1.3,1
		c0.5,0.2,1.1,0.3,1.7,0.3c0.5,0,1-0.1,1.4-0.2c0.4-0.1,0.7-0.3,1-0.4c0.3-0.2,0.5-0.3,0.7-0.4s0.3-0.2,0.4-0.2c0.1,0,0.2,0,0.2,0.1
		l0.3,0.4c-0.2,0.2-0.4,0.4-0.7,0.6c-0.3,0.2-0.6,0.4-1,0.5c-0.4,0.1-0.7,0.2-1.1,0.3c-0.4,0.1-0.8,0.1-1.2,0.1
		c-0.7,0-1.4-0.1-2-0.4c-0.6-0.3-1.1-0.6-1.6-1.1c-0.4-0.5-0.8-1.1-1-1.8c-0.2-0.7-0.4-1.5-0.4-2.5c0-0.8,0.1-1.5,0.3-2.2
		c0.2-0.7,0.5-1.2,1-1.7c0.4-0.5,0.9-0.9,1.6-1.1S169.1,31.1,169.9,31.1z M169.9,31.9c-0.6,0-1.1,0.1-1.5,0.3
		c-0.4,0.2-0.8,0.4-1.2,0.8c-0.3,0.3-0.6,0.7-0.8,1.2s-0.3,1-0.4,1.6h7.2c0-0.6-0.1-1.1-0.2-1.6c-0.2-0.5-0.4-0.9-0.7-1.2
		c-0.3-0.3-0.6-0.6-1.1-0.7C170.8,32,170.4,31.9,169.9,31.9z"/>
	<path class="st1" d="M184.2,32.8l-0.1,0.1H184c-0.1,0-0.2,0-0.3-0.1s-0.3-0.2-0.5-0.3c-0.2-0.1-0.5-0.2-0.8-0.3
		c-0.3-0.1-0.7-0.1-1.2-0.1c-0.6,0-1.2,0.1-1.7,0.3c-0.5,0.2-0.9,0.5-1.2,1c-0.3,0.4-0.6,0.9-0.8,1.5c-0.2,0.6-0.3,1.3-0.3,2
		c0,0.8,0.1,1.5,0.3,2c0.2,0.6,0.4,1.1,0.8,1.5c0.4,0.4,0.7,0.7,1.2,0.9s1,0.3,1.6,0.3c0.5,0,1-0.1,1.3-0.2c0.4-0.1,0.6-0.3,0.9-0.4
		c0.2-0.1,0.4-0.3,0.5-0.4c0.1-0.1,0.2-0.2,0.3-0.2c0.1,0,0.2,0,0.2,0.1l0.3,0.4c-0.2,0.2-0.4,0.4-0.6,0.6s-0.5,0.4-0.9,0.5
		c-0.3,0.1-0.7,0.2-1.1,0.3c-0.4,0.1-0.8,0.1-1.2,0.1c-0.7,0-1.3-0.1-1.9-0.4s-1.1-0.6-1.5-1.1c-0.4-0.5-0.7-1.1-1-1.8
		c-0.2-0.7-0.3-1.5-0.3-2.4c0-0.8,0.1-1.6,0.3-2.3c0.2-0.7,0.5-1.3,1-1.8c0.4-0.5,0.9-0.9,1.6-1.2c0.6-0.3,1.3-0.4,2.1-0.4
		c0.7,0,1.3,0.1,1.9,0.3c0.6,0.2,1,0.5,1.4,0.9L184.2,32.8z"/>
	<path class="st1" d="M190,42.4c-0.7,0-1.3-0.2-1.7-0.6c-0.4-0.4-0.6-1-0.6-1.9v-7.5h-1.6c-0.1,0-0.1,0-0.2-0.1
		c-0.1-0.1-0.1-0.1-0.1-0.2v-0.4l1.9-0.1l0.3-3.9c0-0.1,0-0.1,0.1-0.2c0-0.1,0.1-0.1,0.2-0.1h0.5v4.2h3.4v0.8h-3.4v7.4
		c0,0.3,0,0.6,0.1,0.8c0.1,0.2,0.2,0.4,0.3,0.5s0.3,0.2,0.5,0.3c0.2,0.1,0.4,0.1,0.6,0.1c0.3,0,0.5,0,0.7-0.1s0.4-0.2,0.5-0.3
		c0.1-0.1,0.3-0.2,0.3-0.3c0.1-0.1,0.2-0.1,0.2-0.1c0.1,0,0.1,0,0.2,0.1l0.3,0.5c-0.3,0.3-0.6,0.6-1.1,0.7
		C190.9,42.4,190.4,42.4,190,42.4z"/>
	<path class="st1" d="M196.7,27.6c0,0.1,0,0.3-0.1,0.4c-0.1,0.1-0.1,0.2-0.2,0.3c-0.1,0.1-0.2,0.2-0.3,0.2c-0.1,0.1-0.2,0.1-0.4,0.1
		c-0.1,0-0.3,0-0.4-0.1c-0.1-0.1-0.2-0.1-0.3-0.2s-0.2-0.2-0.2-0.3c-0.1-0.1-0.1-0.2-0.1-0.4s0-0.3,0.1-0.4c0.1-0.1,0.1-0.2,0.2-0.3
		c0.1-0.1,0.2-0.2,0.3-0.2c0.1-0.1,0.2-0.1,0.4-0.1c0.1,0,0.3,0,0.4,0.1c0.1,0.1,0.2,0.1,0.3,0.2s0.2,0.2,0.2,0.3
		C196.6,27.3,196.7,27.4,196.7,27.6z M196.2,31.3v10.9h-1V31.3H196.2z"/>
	<path class="st1" d="M200.1,42.3V31.4h0.6c0.2,0,0.3,0.1,0.3,0.3l0.1,1.7c0.5-0.6,1.1-1.1,1.7-1.5c0.7-0.4,1.4-0.6,2.2-0.6
		c0.6,0,1.1,0.1,1.6,0.3c0.5,0.2,0.8,0.5,1.1,0.8c0.3,0.4,0.5,0.8,0.7,1.3s0.2,1.1,0.2,1.7v7h-1v-7c0-1-0.2-1.8-0.7-2.4
		s-1.2-0.9-2.2-0.9c-0.7,0-1.4,0.2-2,0.6c-0.6,0.4-1.2,0.9-1.6,1.5v8.2L200.1,42.3L200.1,42.3z"/>
	<path class="st1" d="M215.6,31.1c0.5,0,0.9,0.1,1.3,0.2c0.4,0.1,0.8,0.3,1.1,0.5h2.8v0.4c0,0.2-0.1,0.3-0.3,0.3l-1.7,0.1
		c0.2,0.3,0.4,0.6,0.5,0.9c0.1,0.3,0.2,0.7,0.2,1.1c0,0.5-0.1,1-0.3,1.4s-0.5,0.8-0.8,1.1c-0.3,0.3-0.8,0.5-1.2,0.7
		c-0.5,0.2-1,0.3-1.6,0.3c-0.6,0-1.2-0.1-1.7-0.3c-0.3,0.2-0.5,0.4-0.7,0.6s-0.3,0.5-0.3,0.7c0,0.3,0.1,0.6,0.3,0.7
		c0.2,0.2,0.5,0.3,0.9,0.4c0.4,0.1,0.8,0.1,1.2,0.1c0.5,0,0.9,0,1.4,0.1c0.5,0,1,0.1,1.4,0.1c0.5,0.1,0.9,0.2,1.2,0.3
		c0.4,0.2,0.7,0.4,0.9,0.7c0.2,0.3,0.3,0.7,0.3,1.2s-0.1,0.9-0.3,1.3c-0.2,0.4-0.6,0.8-1,1.1c-0.4,0.3-0.9,0.6-1.6,0.8
		c-0.6,0.2-1.3,0.3-2,0.3c-0.8,0-1.4-0.1-2-0.2c-0.6-0.2-1.1-0.4-1.5-0.6c-0.4-0.3-0.7-0.6-0.9-0.9c-0.2-0.4-0.3-0.7-0.3-1.1
		c0-0.6,0.2-1.1,0.6-1.5c0.4-0.4,0.9-0.7,1.6-1c-0.4-0.1-0.7-0.3-0.9-0.5s-0.3-0.6-0.3-1c0-0.2,0-0.3,0.1-0.5
		c0.1-0.2,0.1-0.3,0.3-0.5c0.1-0.2,0.3-0.3,0.4-0.5c0.2-0.1,0.4-0.3,0.6-0.4c-0.5-0.3-0.9-0.7-1.2-1.2s-0.4-1.1-0.4-1.7
		c0-0.5,0.1-1,0.3-1.4c0.2-0.4,0.5-0.8,0.8-1.1c0.3-0.3,0.8-0.5,1.2-0.7C214.5,31.2,215,31.1,215.6,31.1z M219.6,43
		c0-0.3-0.1-0.6-0.3-0.8c-0.2-0.2-0.4-0.4-0.7-0.5c-0.3-0.1-0.6-0.2-1-0.2c-0.4,0-0.8-0.1-1.2-0.1s-0.9,0-1.3-0.1
		c-0.4-0.1-0.8-0.1-1.2-0.1c-0.3,0.1-0.5,0.2-0.8,0.4c-0.2,0.1-0.4,0.3-0.6,0.5s-0.3,0.4-0.4,0.6c-0.1,0.2-0.1,0.5-0.1,0.7
		c0,0.3,0.1,0.6,0.2,0.9c0.2,0.3,0.4,0.5,0.7,0.7s0.7,0.4,1.2,0.5s1,0.2,1.6,0.2c0.6,0,1.1-0.1,1.6-0.2s0.9-0.3,1.3-0.5
		c0.4-0.2,0.6-0.5,0.8-0.8C219.5,43.7,219.6,43.4,219.6,43z M215.6,37.4c0.5,0,0.9-0.1,1.3-0.2c0.4-0.1,0.7-0.3,0.9-0.6
		c0.2-0.2,0.4-0.5,0.6-0.9c0.1-0.3,0.2-0.7,0.2-1.1s-0.1-0.8-0.2-1.1c-0.1-0.3-0.3-0.6-0.6-0.9c-0.3-0.2-0.6-0.4-0.9-0.6
		c-0.4-0.1-0.8-0.2-1.2-0.2s-0.9,0.1-1.2,0.2c-0.3,0.1-0.7,0.3-0.9,0.6c-0.3,0.2-0.4,0.5-0.6,0.9c-0.1,0.3-0.2,0.7-0.2,1.1
		s0.1,0.8,0.2,1.1c0.1,0.3,0.3,0.6,0.6,0.9c0.3,0.2,0.6,0.4,0.9,0.6C214.7,37.4,215.1,37.4,215.6,37.4z"/>
</g>
<g class="st4">
	<path class="st1" d="M123.8,51.9c0.7,0,1.3,0.1,1.8,0.3c0.6,0.2,1.1,0.5,1.5,1c0.4,0.4,0.7,0.9,1,1.6c0.2,0.6,0.3,1.3,0.3,2.1
		c0,0.3,0,0.5-0.1,0.6c-0.1,0.1-0.2,0.2-0.4,0.2h-7.4c0,0.7,0.1,1.3,0.3,1.8c0.2,0.5,0.4,1,0.7,1.3c0.3,0.3,0.7,0.6,1.1,0.8
		s0.9,0.3,1.4,0.3s0.9-0.1,1.3-0.2c0.4-0.1,0.7-0.2,0.9-0.4s0.5-0.3,0.6-0.4c0.2-0.1,0.3-0.2,0.4-0.2c0.2,0,0.3,0.1,0.4,0.2l0.6,0.7
		c-0.2,0.3-0.5,0.5-0.9,0.8c-0.3,0.2-0.7,0.4-1.1,0.5s-0.8,0.2-1.2,0.3c-0.4,0.1-0.8,0.1-1.2,0.1c-0.8,0-1.5-0.1-2.1-0.4
		c-0.6-0.3-1.2-0.6-1.7-1.1s-0.8-1.1-1.1-1.9c-0.3-0.7-0.4-1.6-0.4-2.6c0-0.8,0.1-1.5,0.4-2.2c0.3-0.7,0.6-1.3,1-1.8
		c0.4-0.5,1-0.9,1.6-1.2C122.2,52.1,123,51.9,123.8,51.9z M123.8,53.4c-0.9,0-1.7,0.3-2.2,0.8s-0.9,1.3-1,2.3h6.1
		c0-0.5-0.1-0.9-0.2-1.2c-0.1-0.4-0.3-0.7-0.5-1c-0.2-0.3-0.5-0.5-0.9-0.6S124.3,53.4,123.8,53.4z"/>
	<path class="st1" d="M129.2,52.1h1.6c0.2,0,0.3,0,0.4,0.1s0.2,0.2,0.2,0.3l2.8,7.2c0.1,0.3,0.2,0.5,0.2,0.8
		c0.1,0.3,0.1,0.5,0.2,0.8c0.1-0.3,0.1-0.5,0.2-0.8c0.1-0.3,0.1-0.5,0.3-0.8l2.9-7.2c0-0.1,0.1-0.2,0.2-0.3c0.1-0.1,0.2-0.1,0.4-0.1
		h1.5l-4.5,11.1h-1.8L129.2,52.1z"/>
	<path class="st1" d="M146,51.9c0.7,0,1.3,0.1,1.8,0.3c0.6,0.2,1.1,0.5,1.5,1c0.4,0.4,0.7,0.9,1,1.6c0.2,0.6,0.3,1.3,0.3,2.1
		c0,0.3,0,0.5-0.1,0.6c-0.1,0.1-0.2,0.2-0.4,0.2h-7.4c0,0.7,0.1,1.3,0.3,1.8c0.2,0.5,0.4,1,0.7,1.3s0.7,0.6,1.1,0.8
		c0.4,0.2,0.9,0.3,1.4,0.3s0.9-0.1,1.3-0.2c0.4-0.1,0.7-0.2,0.9-0.4s0.5-0.3,0.6-0.4c0.2-0.1,0.3-0.2,0.4-0.2c0.2,0,0.3,0.1,0.4,0.2
		l0.6,0.7c-0.2,0.3-0.5,0.5-0.9,0.8c-0.3,0.2-0.7,0.4-1.1,0.5s-0.8,0.2-1.2,0.3c-0.4,0.1-0.8,0.1-1.2,0.1c-0.8,0-1.5-0.1-2.1-0.4
		c-0.6-0.3-1.2-0.6-1.7-1.1s-0.8-1.1-1.1-1.9c-0.3-0.7-0.4-1.6-0.4-2.6c0-0.8,0.1-1.5,0.4-2.2s0.6-1.3,1-1.8s1-0.9,1.6-1.2
		C144.5,52.1,145.2,51.9,146,51.9z M146,53.4c-0.9,0-1.7,0.3-2.2,0.8s-0.9,1.3-1,2.3h6.1c0-0.5-0.1-0.9-0.2-1.2
		c-0.1-0.4-0.3-0.7-0.5-1c-0.2-0.3-0.5-0.5-0.9-0.6C146.9,53.6,146.5,53.4,146,53.4z"/>
	<path class="st1" d="M153.1,63.3V52.2h1.1c0.2,0,0.4,0,0.4,0.1c0.1,0.1,0.1,0.2,0.2,0.4l0.1,1.7c0.4-0.8,0.9-1.4,1.4-1.8
		s1.2-0.7,2-0.7c0.3,0,0.6,0,0.8,0.1c0.2,0.1,0.5,0.2,0.7,0.3l-0.3,1.5c-0.1,0.2-0.2,0.3-0.3,0.3c-0.1,0-0.3,0-0.5-0.1
		s-0.5-0.1-0.9-0.1c-0.7,0-1.3,0.2-1.7,0.6c-0.5,0.4-0.8,1-1.1,1.7v7.1H153.1z"/>
	<path class="st1" d="M165.2,66.6c-0.1,0.1-0.1,0.3-0.2,0.4c-0.1,0.1-0.3,0.1-0.5,0.1H163l2-4.4l-4.6-10.5h1.8c0.2,0,0.3,0,0.4,0.1
		c0.1,0.1,0.2,0.2,0.2,0.3l3,7c0.1,0.2,0.1,0.3,0.2,0.5c0,0.2,0.1,0.3,0.1,0.5c0.1-0.2,0.1-0.3,0.2-0.5c0.1-0.2,0.1-0.3,0.2-0.5
		l2.9-7c0-0.1,0.1-0.2,0.2-0.3c0.1-0.1,0.2-0.1,0.3-0.1h1.6L165.2,66.6z"/>
	<path class="st1" d="M176.6,63.4c-0.9,0-1.6-0.2-2-0.7c-0.5-0.5-0.7-1.2-0.7-2.1v-6.8h-1.3c-0.1,0-0.2,0-0.3-0.1
		c-0.1-0.1-0.1-0.2-0.1-0.3v-0.8l1.8-0.2l0.5-3.4c0-0.1,0.1-0.2,0.1-0.3c0.1-0.1,0.2-0.1,0.3-0.1h1v3.8h3.2v1.4h-3.2v6.7
		c0,0.5,0.1,0.8,0.3,1s0.5,0.3,0.9,0.3c0.2,0,0.4,0,0.5-0.1c0.2-0.1,0.3-0.1,0.4-0.2c0.1-0.1,0.2-0.1,0.3-0.2
		c0.1-0.1,0.1-0.1,0.2-0.1c0.1,0,0.2,0.1,0.3,0.2l0.6,0.9c-0.3,0.3-0.7,0.6-1.2,0.7C177.6,63.4,177.1,63.4,176.6,63.4z"/>
	<path class="st1" d="M181.4,63.3V47.1h2v6.6c0.5-0.5,1-0.9,1.6-1.2c0.6-0.3,1.2-0.5,2-0.5c0.6,0,1.1,0.1,1.6,0.3
		c0.5,0.2,0.9,0.5,1.2,0.9s0.5,0.8,0.7,1.3s0.2,1.1,0.2,1.7v7.1h-2v-7.1c0-0.8-0.2-1.5-0.6-2c-0.4-0.5-1-0.7-1.8-0.7
		c-0.6,0-1.1,0.1-1.6,0.4c-0.5,0.3-1,0.7-1.4,1.1v8.2L181.4,63.3L181.4,63.3z"/>
	<path class="st1" d="M196.3,48.6c0,0.2,0,0.4-0.1,0.5c-0.1,0.2-0.2,0.3-0.3,0.4s-0.3,0.2-0.4,0.3c-0.2,0.1-0.3,0.1-0.5,0.1
		s-0.4,0-0.5-0.1c-0.2-0.1-0.3-0.2-0.4-0.3c-0.1-0.1-0.2-0.3-0.3-0.4s-0.1-0.3-0.1-0.5s0-0.4,0.1-0.5c0.1-0.2,0.2-0.3,0.3-0.5
		c0.1-0.1,0.3-0.2,0.4-0.3c0.2-0.1,0.3-0.1,0.5-0.1s0.4,0,0.5,0.1c0.2,0.1,0.3,0.2,0.4,0.3c0.1,0.1,0.2,0.3,0.3,0.5
		C196.3,48.3,196.3,48.4,196.3,48.6z M195.9,52.1v11.1h-2V52.1H195.9z"/>
	<path class="st1" d="M199.3,63.3V52.2h1.2c0.3,0,0.5,0.1,0.5,0.4l0.2,1.1c0.5-0.5,1-1,1.6-1.3c0.6-0.3,1.3-0.5,2.1-0.5
		c0.6,0,1.1,0.1,1.6,0.3c0.5,0.2,0.9,0.5,1.2,0.9c0.3,0.4,0.5,0.8,0.7,1.3s0.2,1.1,0.2,1.7v7.1h-2v-7.1c0-0.8-0.2-1.5-0.6-2
		c-0.4-0.5-1-0.7-1.8-0.7c-0.6,0-1.1,0.1-1.6,0.4c-0.5,0.3-1,0.7-1.4,1.1v8.2h-1.9V63.3z"/>
	<path class="st1" d="M215.3,51.9c0.5,0,0.9,0.1,1.4,0.2c0.4,0.1,0.8,0.3,1.1,0.5h3v0.7c0,0.2-0.2,0.4-0.5,0.5L219,54
		c0.2,0.5,0.4,1,0.4,1.6c0,0.5-0.1,1-0.3,1.5c-0.2,0.4-0.5,0.8-0.9,1.1c-0.4,0.3-0.8,0.6-1.3,0.7c-0.5,0.2-1.1,0.3-1.7,0.3
		c-0.5,0-1-0.1-1.5-0.2c-0.2,0.2-0.4,0.3-0.5,0.5c-0.1,0.2-0.2,0.3-0.2,0.5c0,0.3,0.1,0.5,0.3,0.6s0.5,0.2,0.8,0.3s0.8,0.1,1.2,0.1
		c0.4,0,0.9,0,1.4,0s0.9,0,1.4,0.1c0.4,0.1,0.8,0.2,1.2,0.4s0.6,0.4,0.8,0.8c0.2,0.3,0.3,0.8,0.3,1.3c0,0.5-0.1,1-0.4,1.4
		c-0.2,0.5-0.6,0.9-1,1.2c-0.4,0.3-1,0.6-1.6,0.8c-0.6,0.2-1.4,0.3-2.2,0.3c-0.8,0-1.5-0.1-2.1-0.2c-0.6-0.2-1.1-0.4-1.5-0.6
		c-0.4-0.2-0.7-0.6-0.9-0.9c-0.2-0.4-0.3-0.7-0.3-1.1c0-0.5,0.2-1,0.5-1.4s0.8-0.7,1.4-0.9c-0.3-0.1-0.6-0.3-0.8-0.6
		c-0.2-0.3-0.3-0.6-0.3-1c0-0.2,0-0.3,0.1-0.5c0.1-0.2,0.1-0.3,0.3-0.5c0.1-0.2,0.3-0.3,0.4-0.5c0.2-0.2,0.4-0.3,0.6-0.4
		c-0.6-0.3-1-0.7-1.3-1.2s-0.5-1.1-0.5-1.8c0-0.5,0.1-1,0.3-1.5c0.2-0.4,0.5-0.8,0.9-1.1c0.4-0.3,0.8-0.6,1.3-0.7
		C214.1,52,214.7,51.9,215.3,51.9z M218.8,63.8c0-0.3-0.1-0.5-0.2-0.7c-0.1-0.2-0.4-0.3-0.6-0.4c-0.3-0.1-0.6-0.2-0.9-0.2
		s-0.7-0.1-1.1-0.1c-0.4,0-0.8,0-1.2,0s-0.8,0-1.1-0.1c-0.4,0.2-0.8,0.4-1,0.7c-0.3,0.3-0.4,0.6-0.4,1c0,0.2,0.1,0.5,0.2,0.7
		c0.1,0.2,0.3,0.4,0.6,0.6c0.3,0.2,0.6,0.3,1,0.4c0.4,0.1,0.9,0.1,1.4,0.1s1,0,1.4-0.1c0.4-0.1,0.8-0.2,1.1-0.4s0.5-0.4,0.7-0.6
		C218.7,64.4,218.8,64.1,218.8,63.8z M215.3,57.8c0.4,0,0.7-0.1,1.1-0.2c0.3-0.1,0.6-0.3,0.8-0.5c0.2-0.2,0.4-0.4,0.5-0.7
		c0.1-0.3,0.2-0.6,0.2-0.9c0-0.7-0.2-1.2-0.6-1.6c-0.4-0.4-1-0.6-1.8-0.6s-1.4,0.2-1.8,0.6c-0.4,0.4-0.6,0.9-0.6,1.6
		c0,0.3,0.1,0.6,0.2,0.9c0.1,0.3,0.3,0.5,0.5,0.7s0.5,0.4,0.8,0.5C214.6,57.8,214.9,57.8,215.3,57.8z"/>
</g>
</svg>
