<svg width="41" height="56" viewBox="0 0 41 56" fill="none" xmlns="http://www.w3.org/2000/svg">
<path d="M12 21.9733V12C12 8.32 14.9867 5.33333 18.6667 5.33333C22.3467 5.33333 25.3333 8.32 25.3333 12V21.9733C28.56 19.8133 30.6667 16.16 30.6667 12C30.6667 5.36 25.3067 0 18.6667 0C12.0267 0 6.66666 5.36 6.66666 12C6.66666 16.16 8.77332 19.8133 12 21.9733ZM38.24 34.32L26.1333 28.2933C25.68 28.1067 25.2 28 24.6933 28H22.6667V12C22.6667 9.78667 20.88 8 18.6667 8C16.4533 8 14.6667 9.78667 14.6667 12V40.64L5.51999 38.72C5.30666 38.6933 5.11999 38.64 4.87999 38.64C4.05332 38.64 3.30666 38.9867 2.77332 39.52L0.666656 41.6533L13.84 54.8267C14.56 55.5467 15.5733 56 16.6667 56H34.7733C36.7733 56 38.32 54.5333 38.6133 52.5867L40.6133 38.5333C40.64 38.3467 40.6667 38.16 40.6667 38C40.6667 36.3467 39.6533 34.9067 38.24 34.32Z" fill="#F47958"/>
</svg>
