<svg width="48" height="48" viewBox="0 0 48 48" fill="none" xmlns="http://www.w3.org/2000/svg">
<path d="M36 32.16C34.48 32.16 33.12 32.76 32.08 33.7L17.82 25.4C17.92 24.94 18 24.48 18 24C18 23.52 17.92 23.06 17.82 22.6L31.92 14.38C33 15.38 34.42 16 36 16C39.32 16 42 13.32 42 10C42 6.68 39.32 4 36 4C32.68 4 30 6.68 30 10C30 10.48 30.08 10.94 30.18 11.4L16.08 19.62C15 18.62 13.58 18 12 18C8.68 18 6 20.68 6 24C6 27.32 8.68 30 12 30C13.58 30 15 29.38 16.08 28.38L30.32 36.7C30.22 37.12 30.16 37.56 30.16 38C30.16 41.22 32.78 43.84 36 43.84C39.22 43.84 41.84 41.22 41.84 38C41.84 34.78 39.22 32.16 36 32.16Z" fill="#F47958"/>
</svg>
