<?xml version="1.0" encoding="utf-8"?>
<!-- Generator: Adobe Illustrator 21.1.0, SVG Export Plug-In . SVG Version: 6.00 Build 0)  -->
<svg version="1.1" id="Camada_1" xmlns="http://www.w3.org/2000/svg" xmlns:xlink="http://www.w3.org/1999/xlink" x="0px" y="0px"
	 viewBox="0 0 107 145.4" style="enable-background:new 0 0 107 145.4;" xml:space="preserve">
<style type="text/css">
	.st0{fill:#F47958;}
	.st1{fill:#FFFFFF;}
	.st2{opacity:0.35;fill:none;stroke:#FFFFFF;stroke-width:4;stroke-miterlimit:10;enable-background:new    ;}
	.st3{fill:none;}
	.st4{font-family:'Lato-Light';}
	.st5{font-size:22px;}
	.st6{font-family:'Lato-Regular';}
</style>
<path class="st0" d="M25.2,0h56.4c5.2,0,9.9,2.2,13.2,5.5c3.5,3.3,5.5,8,5.5,13.2v56.4c0,5.2-2,9.9-5.5,13.2l0,0
	c-3.3,3.3-8,5.5-13.2,5.5H25.2c-5.2,0-9.9-2.2-13.2-5.5l0,0c-3.3-3.3-5.5-8-5.5-13.2V18.7c0-5.2,2.2-9.9,5.5-13.2l0,0
	C15.5,2.2,20,0,25.2,0L25.2,0z"/>
<path class="st1" d="M10.7,30.8c0-2,0.7-3.7,2.2-5.1s3.2-2.1,5.2-2.1c2.1,0,3.8,0.7,5.3,2.1c1.4,1.4,2.1,3.2,2.1,5.2
	c0,2.1-0.7,3.8-2.2,5.2c-1.4,1.4-3.2,2.1-5.3,2.1s-3.8-0.7-5.2-2.1C11.4,34.7,10.7,33,10.7,30.8z M14,30.9c0,1.4,0.4,2.5,1.1,3.3
	c0.8,0.8,1.8,1.2,3,1.2c1.3,0,2.3-0.4,3-1.2c0.8-0.8,1.1-1.9,1.1-3.2c0-1.4-0.4-2.4-1.1-3.2c-0.8-0.8-1.8-1.2-3-1.2s-2.2,0.4-3,1.2
	C14.3,28.5,14,29.6,14,30.9z"/>
<path class="st1" d="M34.7,24H38v1.3c1.1-1.1,2.4-1.7,3.8-1.7c1.6,0,2.9,0.5,3.8,1.5c0.8,0.9,1.2,2.3,1.2,4.2v8.5h-3.2V30
	c0-1.4-0.2-2.3-0.6-2.8c-0.4-0.5-1-0.8-2-0.8c-1.1,0-1.8,0.4-2.3,1.1c-0.4,0.7-0.7,1.9-0.7,3.6v6.7h-3.2L34.7,24L34.7,24z"/>
<path class="st1" d="M69.3,31.7h-10c0.1,1.1,0.5,2,1.1,2.7c0.7,0.7,1.5,1,2.5,1c0.8,0,1.5-0.2,2-0.6c0.5-0.4,1.1-1.1,1.8-2.1
	l2.7,1.5c-0.4,0.7-0.9,1.3-1.3,1.8c-0.5,0.5-1,0.9-1.5,1.3s-1.1,0.6-1.7,0.7c-0.6,0.2-1.3,0.2-2,0.2c-2.1,0-3.7-0.7-5-2
	S56,33.1,56,30.9s0.6-4,1.8-5.3s2.9-2,4.9-2c2,0,3.7,0.7,4.8,2c1.2,1.3,1.8,3.1,1.8,5.4V31.7z M66,29.1c-0.4-1.7-1.5-2.6-3.2-2.6
	c-0.4,0-0.8,0.1-1.1,0.2S61,27,60.8,27.2c-0.3,0.2-0.5,0.5-0.7,0.8s-0.4,0.7-0.5,1.1H66z"/>
<path class="st1" d="M38.4,43.8v24.1h-3.2V43.8H38.4z"/>
<path class="st1" d="M47.8,48.3c0-0.6,0.2-1,0.6-1.5s0.9-0.6,1.5-0.6s1.1,0.2,1.5,0.6c0.4,0.4,0.6,0.9,0.6,1.5s-0.2,1.1-0.6,1.5
	c-0.4,0.4-0.9,0.6-1.5,0.6s-1.1-0.2-1.5-0.6S47.8,48.8,47.8,48.3z M51.5,54v13.9h-3.2V54H51.5z"/>
<path class="st1" d="M61.4,54h3.2v1.3c1.1-1.1,2.4-1.7,3.8-1.7c1.6,0,2.9,0.5,3.8,1.5c0.8,0.9,1.2,2.3,1.2,4.2v8.5h-3.2V60
	c0-1.4-0.2-2.3-0.6-2.8s-1-0.8-2-0.8c-1.1,0-1.8,0.4-2.3,1.1c-0.4,0.7-0.7,1.9-0.7,3.6v6.7h-3.2C61.4,67.8,61.4,54,61.4,54z"/>
<path class="st1" d="M95.9,61.7H86c0.1,1.1,0.5,2,1.1,2.7c0.7,0.7,1.5,1,2.5,1c0.8,0,1.5-0.2,2-0.6s1.1-1.1,1.8-2.1l2.7,1.5
	c-0.4,0.7-0.9,1.3-1.3,1.8s-1,0.9-1.5,1.3c-0.5,0.3-1.1,0.6-1.7,0.7c-0.6,0.2-1.3,0.2-2,0.2c-2.1,0-3.7-0.7-5-2s-1.9-3.1-1.9-5.3
	s0.6-4,1.8-5.3c1.2-1.3,2.9-2,4.9-2s3.7,0.7,4.8,2c1.2,1.3,1.8,3.1,1.8,5.4L95.9,61.7z M92.7,59.1c-0.4-1.7-1.5-2.6-3.2-2.6
	c-0.4,0-0.8,0.1-1.1,0.2s-0.7,0.3-0.9,0.5S87,57.7,86.8,58s-0.4,0.7-0.5,1.1H92.7z"/>
<line class="st2" x1="36.7" y1="0" x2="36.7" y2="94"/>
<rect y="101.3" class="st3" width="107" height="43"/>
<text transform="matrix(1 0 0 1 1.9829 117.2764)"><tspan x="0" y="0" class="st1 st4 st5">connecting</tspan><tspan x="-0.5" y="21" class="st1 st6 st5">everything </tspan></text>
</svg>
