<?xml version="1.0" encoding="utf-8"?>
<!-- Generator: Adobe Illustrator 21.1.0, SVG Export Plug-In . SVG Version: 6.00 Build 0)  -->
<svg version="1.1" id="Camada_1" xmlns="http://www.w3.org/2000/svg" xmlns:xlink="http://www.w3.org/1999/xlink" x="0px" y="0px"
	 viewBox="0 0 107 145.4" style="enable-background:new 0 0 107 145.4;" xml:space="preserve">
<style type="text/css">
	.st0{fill:#F47958;}
	.st1{fill:#FFFFFF;}
	.st2{opacity:0.35;fill:none;stroke:#FFFFFF;stroke-width:4;stroke-miterlimit:10;enable-background:new    ;}
	.st3{fill:none;}
	.st4{enable-background:new    ;}
</style>
<path class="st0" d="M25.2,0h56.4c5.2,0,9.9,2.2,13.2,5.5c3.5,3.3,5.5,8,5.5,13.2v56.4c0,5.2-2,9.9-5.5,13.2l0,0
	c-3.3,3.3-8,5.5-13.2,5.5H25.2c-5.2,0-9.9-2.2-13.2-5.5l0,0c-3.3-3.3-5.5-8-5.5-13.2V18.7c0-5.2,2.2-9.9,5.5-13.2l0,0
	C15.5,2.2,20,0,25.2,0L25.2,0z"/>
<path class="st1" d="M10.7,30.8c0-2,0.7-3.7,2.2-5.1s3.2-2.1,5.2-2.1c2.1,0,3.8,0.7,5.3,2.1c1.4,1.4,2.1,3.2,2.1,5.2
	c0,2.1-0.7,3.8-2.2,5.2c-1.4,1.4-3.2,2.1-5.3,2.1s-3.8-0.7-5.2-2.1C11.4,34.7,10.7,33,10.7,30.8z M14,30.9c0,1.4,0.4,2.5,1.1,3.3
	c0.8,0.8,1.8,1.2,3,1.2c1.3,0,2.3-0.4,3-1.2c0.8-0.8,1.1-1.9,1.1-3.2c0-1.4-0.4-2.4-1.1-3.2c-0.8-0.8-1.8-1.2-3-1.2s-2.2,0.4-3,1.2
	C14.3,28.5,14,29.6,14,30.9z"/>
<path class="st1" d="M34.7,24H38v1.3c1.1-1.1,2.4-1.7,3.8-1.7c1.6,0,2.9,0.5,3.8,1.5c0.8,0.9,1.2,2.3,1.2,4.2v8.5h-3.2V30
	c0-1.4-0.2-2.3-0.6-2.8c-0.4-0.5-1-0.8-2-0.8c-1.1,0-1.8,0.4-2.3,1.1c-0.4,0.7-0.7,1.9-0.7,3.6v6.7h-3.2L34.7,24L34.7,24z"/>
<path class="st1" d="M69.3,31.7h-10c0.1,1.1,0.5,2,1.1,2.7c0.7,0.7,1.5,1,2.5,1c0.8,0,1.5-0.2,2-0.6c0.5-0.4,1.1-1.1,1.8-2.1
	l2.7,1.5c-0.4,0.7-0.9,1.3-1.3,1.8c-0.5,0.5-1,0.9-1.5,1.3s-1.1,0.6-1.7,0.7c-0.6,0.2-1.3,0.2-2,0.2c-2.1,0-3.7-0.7-5-2
	S56,33.1,56,30.9s0.6-4,1.8-5.3s2.9-2,4.9-2c2,0,3.7,0.7,4.8,2c1.2,1.3,1.8,3.1,1.8,5.4V31.7z M66,29.1c-0.4-1.7-1.5-2.6-3.2-2.6
	c-0.4,0-0.8,0.1-1.1,0.2S61,27,60.8,27.2c-0.3,0.2-0.5,0.5-0.7,0.8s-0.4,0.7-0.5,1.1H66z"/>
<path class="st1" d="M38.4,43.8v24.1h-3.2V43.8H38.4z"/>
<path class="st1" d="M47.8,48.3c0-0.6,0.2-1,0.6-1.5s0.9-0.6,1.5-0.6s1.1,0.2,1.5,0.6c0.4,0.4,0.6,0.9,0.6,1.5s-0.2,1.1-0.6,1.5
	c-0.4,0.4-0.9,0.6-1.5,0.6s-1.1-0.2-1.5-0.6S47.8,48.8,47.8,48.3z M51.5,54v13.9h-3.2V54H51.5z"/>
<path class="st1" d="M61.4,54h3.2v1.3c1.1-1.1,2.4-1.7,3.8-1.7c1.6,0,2.9,0.5,3.8,1.5c0.8,0.9,1.2,2.3,1.2,4.2v8.5h-3.2V60
	c0-1.4-0.2-2.3-0.6-2.8s-1-0.8-2-0.8c-1.1,0-1.8,0.4-2.3,1.1c-0.4,0.7-0.7,1.9-0.7,3.6v6.7h-3.2C61.4,67.8,61.4,54,61.4,54z"/>
<path class="st1" d="M95.9,61.7H86c0.1,1.1,0.5,2,1.1,2.7c0.7,0.7,1.5,1,2.5,1c0.8,0,1.5-0.2,2-0.6s1.1-1.1,1.8-2.1l2.7,1.5
	c-0.4,0.7-0.9,1.3-1.3,1.8s-1,0.9-1.5,1.3c-0.5,0.3-1.1,0.6-1.7,0.7c-0.6,0.2-1.3,0.2-2,0.2c-2.1,0-3.7-0.7-5-2s-1.9-3.1-1.9-5.3
	s0.6-4,1.8-5.3c1.2-1.3,2.9-2,4.9-2s3.7,0.7,4.8,2c1.2,1.3,1.8,3.1,1.8,5.4L95.9,61.7z M92.7,59.1c-0.4-1.7-1.5-2.6-3.2-2.6
	c-0.4,0-0.8,0.1-1.1,0.2s-0.7,0.3-0.9,0.5S87,57.7,86.8,58s-0.4,0.7-0.5,1.1H92.7z"/>
<line class="st2" x1="36.7" y1="0" x2="36.7" y2="94"/>
<rect y="101.3" class="st3" width="107" height="43"/>
<g class="st4">
	<path class="st1" d="M11,108.1c0,0-0.1,0.1-0.1,0.1c0,0-0.1,0-0.1,0c-0.1,0-0.2,0-0.3-0.1c-0.1-0.1-0.3-0.2-0.5-0.3
		c-0.2-0.1-0.5-0.2-0.8-0.3c-0.3-0.1-0.7-0.1-1.2-0.1c-0.6,0-1.2,0.1-1.7,0.3c-0.5,0.2-0.9,0.5-1.2,1c-0.3,0.4-0.6,0.9-0.8,1.5
		c-0.2,0.6-0.3,1.3-0.3,2c0,0.8,0.1,1.5,0.3,2c0.2,0.6,0.4,1.1,0.8,1.5s0.7,0.7,1.2,0.9s1,0.3,1.6,0.3c0.5,0,1-0.1,1.3-0.2
		c0.4-0.1,0.6-0.3,0.9-0.4c0.2-0.1,0.4-0.3,0.5-0.4c0.1-0.1,0.2-0.2,0.3-0.2c0.1,0,0.2,0,0.2,0.1l0.3,0.4c-0.2,0.2-0.4,0.4-0.6,0.6
		s-0.5,0.4-0.9,0.5c-0.3,0.1-0.7,0.2-1.1,0.3c-0.4,0.1-0.8,0.1-1.2,0.1c-0.7,0-1.3-0.1-1.9-0.4s-1.1-0.6-1.5-1.1
		c-0.4-0.5-0.7-1.1-1-1.8C3.1,113.8,3,113,3,112.1c0-0.8,0.1-1.6,0.3-2.3c0.2-0.7,0.5-1.3,1-1.8c0.4-0.5,0.9-0.9,1.6-1.2
		c0.6-0.3,1.3-0.4,2.1-0.4c0.7,0,1.3,0.1,1.9,0.3c0.6,0.2,1,0.5,1.4,0.9L11,108.1z"/>
	<path class="st1" d="M18,106.4c0.8,0,1.5,0.1,2.1,0.4c0.6,0.3,1.1,0.6,1.6,1.1s0.7,1.1,1,1.8c0.2,0.7,0.3,1.5,0.3,2.3
		c0,0.9-0.1,1.6-0.3,2.3c-0.2,0.7-0.5,1.3-1,1.8s-0.9,0.9-1.6,1.1c-0.6,0.3-1.3,0.4-2.1,0.4c-0.8,0-1.5-0.1-2.1-0.4
		c-0.6-0.3-1.1-0.6-1.6-1.1s-0.8-1.1-1-1.8s-0.3-1.5-0.3-2.3c0-0.9,0.1-1.6,0.3-2.3c0.2-0.7,0.5-1.3,1-1.8s1-0.9,1.6-1.1
		C16.5,106.6,17.2,106.4,18,106.4z M18,116.9c0.7,0,1.2-0.1,1.7-0.3c0.5-0.2,0.9-0.5,1.2-1c0.3-0.4,0.6-0.9,0.7-1.5
		c0.2-0.6,0.2-1.3,0.2-2c0-0.7-0.1-1.4-0.2-2c-0.2-0.6-0.4-1.1-0.7-1.5s-0.7-0.7-1.2-1c-0.5-0.2-1.1-0.3-1.7-0.3
		c-0.7,0-1.2,0.1-1.7,0.3c-0.5,0.2-0.9,0.6-1.2,1c-0.3,0.4-0.6,0.9-0.7,1.5c-0.2,0.6-0.2,1.3-0.2,2c0,0.7,0.1,1.4,0.2,2
		c0.2,0.6,0.4,1.1,0.7,1.5c0.3,0.4,0.7,0.7,1.2,1C16.8,116.8,17.4,116.9,18,116.9z"/>
	<path class="st1" d="M25.8,117.6v-10.9h0.6c0.2,0,0.3,0.1,0.3,0.3l0.1,1.7c0.5-0.6,1.1-1.1,1.7-1.5c0.7-0.4,1.4-0.6,2.2-0.6
		c0.6,0,1.1,0.1,1.6,0.3c0.5,0.2,0.8,0.5,1.1,0.8c0.3,0.4,0.5,0.8,0.7,1.3c0.2,0.5,0.2,1.1,0.2,1.7v7h-1v-7c0-1-0.2-1.8-0.7-2.4
		s-1.2-0.9-2.2-0.9c-0.7,0-1.4,0.2-2,0.6c-0.6,0.4-1.2,0.9-1.6,1.5v8.2H25.8z"/>
	<path class="st1" d="M37.7,117.6v-10.9h0.6c0.2,0,0.3,0.1,0.3,0.3l0.1,1.7c0.5-0.6,1.1-1.1,1.7-1.5c0.7-0.4,1.4-0.6,2.2-0.6
		c0.6,0,1.1,0.1,1.6,0.3c0.5,0.2,0.8,0.5,1.1,0.8c0.3,0.4,0.5,0.8,0.7,1.3c0.2,0.5,0.2,1.1,0.2,1.7v7h-1v-7c0-1-0.2-1.8-0.7-2.4
		s-1.2-0.9-2.2-0.9c-0.7,0-1.4,0.2-2,0.6c-0.6,0.4-1.2,0.9-1.6,1.5v8.2H37.7z"/>
	<path class="st1" d="M53.7,106.4c0.6,0,1.2,0.1,1.7,0.3c0.5,0.2,1,0.5,1.4,0.9c0.4,0.4,0.7,0.9,0.9,1.5s0.3,1.3,0.3,2
		c0,0.2,0,0.3-0.1,0.3c0,0.1-0.1,0.1-0.2,0.1h-7.9v0.2c0,0.8,0.1,1.5,0.3,2.2c0.2,0.6,0.5,1.1,0.8,1.6c0.4,0.4,0.8,0.7,1.3,1
		c0.5,0.2,1.1,0.3,1.7,0.3c0.5,0,1-0.1,1.4-0.2c0.4-0.1,0.7-0.3,1-0.4c0.3-0.2,0.5-0.3,0.7-0.4c0.2-0.1,0.3-0.2,0.4-0.2
		c0.1,0,0.2,0,0.2,0.1l0.3,0.4c-0.2,0.2-0.4,0.4-0.7,0.6c-0.3,0.2-0.6,0.4-1,0.5c-0.4,0.1-0.7,0.2-1.1,0.3c-0.4,0.1-0.8,0.1-1.2,0.1
		c-0.7,0-1.4-0.1-2-0.4c-0.6-0.3-1.1-0.6-1.6-1.1c-0.4-0.5-0.8-1.1-1-1.8c-0.2-0.7-0.4-1.5-0.4-2.5c0-0.8,0.1-1.5,0.3-2.2
		c0.2-0.7,0.5-1.2,1-1.7c0.4-0.5,0.9-0.9,1.6-1.1S52.9,106.4,53.7,106.4z M53.7,107.2c-0.6,0-1.1,0.1-1.5,0.3s-0.8,0.4-1.2,0.8
		c-0.3,0.3-0.6,0.7-0.8,1.2c-0.2,0.5-0.3,1-0.4,1.6H57c0-0.6-0.1-1.1-0.2-1.6c-0.2-0.5-0.4-0.9-0.7-1.2s-0.6-0.6-1.1-0.7
		C54.6,107.3,54.2,107.2,53.7,107.2z"/>
	<path class="st1" d="M68,108.1c0,0-0.1,0.1-0.1,0.1c0,0-0.1,0-0.1,0c-0.1,0-0.2,0-0.3-0.1c-0.1-0.1-0.3-0.2-0.5-0.3
		c-0.2-0.1-0.5-0.2-0.8-0.3c-0.3-0.1-0.7-0.1-1.2-0.1c-0.6,0-1.2,0.1-1.7,0.3c-0.5,0.2-0.9,0.5-1.2,1c-0.3,0.4-0.6,0.9-0.8,1.5
		c-0.2,0.6-0.3,1.3-0.3,2c0,0.8,0.1,1.5,0.3,2c0.2,0.6,0.4,1.1,0.8,1.5s0.7,0.7,1.2,0.9s1,0.3,1.6,0.3c0.5,0,1-0.1,1.3-0.2
		c0.4-0.1,0.6-0.3,0.9-0.4c0.2-0.1,0.4-0.3,0.5-0.4c0.1-0.1,0.2-0.2,0.3-0.2c0.1,0,0.2,0,0.2,0.1l0.3,0.4c-0.2,0.2-0.4,0.4-0.6,0.6
		s-0.5,0.4-0.9,0.5c-0.3,0.1-0.7,0.2-1.1,0.3c-0.4,0.1-0.8,0.1-1.2,0.1c-0.7,0-1.3-0.1-1.9-0.4s-1.1-0.6-1.5-1.1
		c-0.4-0.5-0.7-1.1-1-1.8c-0.2-0.7-0.3-1.5-0.3-2.4c0-0.8,0.1-1.6,0.3-2.3c0.2-0.7,0.5-1.3,1-1.8c0.4-0.5,0.9-0.9,1.6-1.2
		c0.6-0.3,1.3-0.4,2.1-0.4c0.7,0,1.3,0.1,1.9,0.3c0.6,0.2,1,0.5,1.4,0.9L68,108.1z"/>
	<path class="st1" d="M73.8,117.7c-0.7,0-1.3-0.2-1.7-0.6c-0.4-0.4-0.6-1-0.6-1.9v-7.5h-1.6c-0.1,0-0.1,0-0.2-0.1s-0.1-0.1-0.1-0.2
		v-0.4l1.9-0.1l0.3-3.9c0-0.1,0-0.1,0.1-0.2c0-0.1,0.1-0.1,0.2-0.1h0.5v4.2h3.4v0.8h-3.4v7.4c0,0.3,0,0.6,0.1,0.8
		c0.1,0.2,0.2,0.4,0.3,0.5s0.3,0.2,0.5,0.3c0.2,0.1,0.4,0.1,0.6,0.1c0.3,0,0.5,0,0.7-0.1c0.2-0.1,0.4-0.2,0.5-0.3s0.3-0.2,0.3-0.3
		c0.1-0.1,0.2-0.1,0.2-0.1c0.1,0,0.1,0,0.2,0.1l0.3,0.5c-0.3,0.3-0.6,0.6-1.1,0.7C74.7,117.7,74.2,117.7,73.8,117.7z"/>
	<path class="st1" d="M80.5,102.9c0,0.1,0,0.3-0.1,0.4c-0.1,0.1-0.1,0.2-0.2,0.3c-0.1,0.1-0.2,0.2-0.3,0.2c-0.1,0.1-0.2,0.1-0.4,0.1
		c-0.1,0-0.3,0-0.4-0.1c-0.1-0.1-0.2-0.1-0.3-0.2s-0.2-0.2-0.2-0.3c-0.1-0.1-0.1-0.2-0.1-0.4s0-0.3,0.1-0.4s0.1-0.2,0.2-0.3
		s0.2-0.2,0.3-0.2c0.1-0.1,0.2-0.1,0.4-0.1c0.1,0,0.3,0,0.4,0.1c0.1,0.1,0.2,0.1,0.3,0.2c0.1,0.1,0.2,0.2,0.2,0.3
		C80.4,102.6,80.5,102.7,80.5,102.9z M80,106.6v10.9h-1v-10.9H80z"/>
	<path class="st1" d="M83.9,117.6v-10.9h0.6c0.2,0,0.3,0.1,0.3,0.3l0.1,1.7c0.5-0.6,1.1-1.1,1.7-1.5c0.7-0.4,1.4-0.6,2.2-0.6
		c0.6,0,1.1,0.1,1.6,0.3c0.5,0.2,0.8,0.5,1.1,0.8c0.3,0.4,0.5,0.8,0.7,1.3c0.2,0.5,0.2,1.1,0.2,1.7v7h-1v-7c0-1-0.2-1.8-0.7-2.4
		s-1.2-0.9-2.2-0.9c-0.7,0-1.4,0.2-2,0.6c-0.6,0.4-1.2,0.9-1.6,1.5v8.2H83.9z"/>
	<path class="st1" d="M99.4,106.4c0.5,0,0.9,0.1,1.3,0.2c0.4,0.1,0.8,0.3,1.1,0.5h2.8v0.4c0,0.2-0.1,0.3-0.3,0.3l-1.7,0.1
		c0.2,0.3,0.4,0.6,0.5,0.9c0.1,0.3,0.2,0.7,0.2,1.1c0,0.5-0.1,1-0.3,1.4c-0.2,0.4-0.5,0.8-0.8,1.1c-0.3,0.3-0.8,0.5-1.2,0.7
		c-0.5,0.2-1,0.3-1.6,0.3c-0.6,0-1.2-0.1-1.7-0.3c-0.3,0.2-0.5,0.4-0.7,0.6c-0.2,0.2-0.3,0.5-0.3,0.7c0,0.3,0.1,0.6,0.3,0.7
		c0.2,0.2,0.5,0.3,0.9,0.4c0.4,0.1,0.8,0.1,1.2,0.1c0.5,0,0.9,0,1.4,0.1c0.5,0,1,0.1,1.4,0.1c0.5,0.1,0.9,0.2,1.2,0.3
		c0.4,0.2,0.7,0.4,0.9,0.7c0.2,0.3,0.3,0.7,0.3,1.2c0,0.5-0.1,0.9-0.3,1.3c-0.2,0.4-0.6,0.8-1,1.1c-0.4,0.3-0.9,0.6-1.6,0.8
		c-0.6,0.2-1.3,0.3-2,0.3c-0.8,0-1.4-0.1-2-0.2c-0.6-0.2-1.1-0.4-1.5-0.6c-0.4-0.3-0.7-0.6-0.9-0.9c-0.2-0.4-0.3-0.7-0.3-1.1
		c0-0.6,0.2-1.1,0.6-1.5s0.9-0.7,1.6-1c-0.4-0.1-0.7-0.3-0.9-0.5c-0.2-0.2-0.3-0.6-0.3-1c0-0.2,0-0.3,0.1-0.5
		c0.1-0.2,0.1-0.3,0.3-0.5c0.1-0.2,0.3-0.3,0.4-0.5c0.2-0.1,0.4-0.3,0.6-0.4c-0.5-0.3-0.9-0.7-1.2-1.2c-0.3-0.5-0.4-1.1-0.4-1.7
		c0-0.5,0.1-1,0.3-1.4s0.5-0.8,0.8-1.1c0.3-0.3,0.8-0.5,1.2-0.7C98.3,106.5,98.8,106.4,99.4,106.4z M103.4,118.3
		c0-0.3-0.1-0.6-0.3-0.8c-0.2-0.2-0.4-0.4-0.7-0.5s-0.6-0.2-1-0.2c-0.4,0-0.8-0.1-1.2-0.1c-0.4,0-0.9,0-1.3-0.1s-0.8-0.1-1.2-0.1
		c-0.3,0.1-0.5,0.2-0.8,0.4c-0.2,0.1-0.4,0.3-0.6,0.5c-0.2,0.2-0.3,0.4-0.4,0.6c-0.1,0.2-0.1,0.5-0.1,0.7c0,0.3,0.1,0.6,0.2,0.9
		c0.2,0.3,0.4,0.5,0.7,0.7c0.3,0.2,0.7,0.4,1.2,0.5c0.5,0.1,1,0.2,1.6,0.2c0.6,0,1.1-0.1,1.6-0.2c0.5-0.1,0.9-0.3,1.3-0.5
		c0.4-0.2,0.6-0.5,0.8-0.8C103.3,119,103.4,118.7,103.4,118.3z M99.4,112.7c0.5,0,0.9-0.1,1.3-0.2c0.4-0.1,0.7-0.3,0.9-0.6
		c0.2-0.2,0.4-0.5,0.6-0.9c0.1-0.3,0.2-0.7,0.2-1.1c0-0.4-0.1-0.8-0.2-1.1c-0.1-0.3-0.3-0.6-0.6-0.9c-0.3-0.2-0.6-0.4-0.9-0.6
		c-0.4-0.1-0.8-0.2-1.2-0.2s-0.9,0.1-1.2,0.2s-0.7,0.3-0.9,0.6c-0.3,0.2-0.4,0.5-0.6,0.9c-0.1,0.3-0.2,0.7-0.2,1.1
		c0,0.4,0.1,0.8,0.2,1.1c0.1,0.3,0.3,0.6,0.6,0.9c0.3,0.2,0.6,0.4,0.9,0.6C98.5,112.7,98.9,112.7,99.4,112.7z"/>
</g>
<g class="st4">
	<path class="st1" d="M7.6,127.2c0.7,0,1.3,0.1,1.8,0.3c0.6,0.2,1.1,0.5,1.5,1c0.4,0.4,0.7,0.9,1,1.6c0.2,0.6,0.3,1.3,0.3,2.1
		c0,0.3,0,0.5-0.1,0.6s-0.2,0.2-0.4,0.2H4.3c0,0.7,0.1,1.3,0.3,1.8c0.2,0.5,0.4,1,0.7,1.3c0.3,0.3,0.7,0.6,1.1,0.8
		c0.4,0.2,0.9,0.3,1.4,0.3c0.5,0,0.9-0.1,1.3-0.2c0.4-0.1,0.7-0.2,0.9-0.4s0.5-0.3,0.6-0.4c0.2-0.1,0.3-0.2,0.4-0.2
		c0.2,0,0.3,0.1,0.4,0.2l0.6,0.7c-0.2,0.3-0.5,0.5-0.9,0.8c-0.3,0.2-0.7,0.4-1.1,0.5c-0.4,0.1-0.8,0.2-1.2,0.3
		c-0.4,0.1-0.8,0.1-1.2,0.1c-0.8,0-1.5-0.1-2.1-0.4c-0.6-0.3-1.2-0.6-1.7-1.1c-0.5-0.5-0.8-1.1-1.1-1.9c-0.3-0.7-0.4-1.6-0.4-2.6
		c0-0.8,0.1-1.5,0.4-2.2s0.6-1.3,1-1.8c0.4-0.5,1-0.9,1.6-1.2C6,127.4,6.8,127.2,7.6,127.2z M7.6,128.7c-0.9,0-1.7,0.3-2.2,0.8
		c-0.5,0.5-0.9,1.3-1,2.3h6.1c0-0.5-0.1-0.9-0.2-1.2c-0.1-0.4-0.3-0.7-0.5-1c-0.2-0.3-0.5-0.5-0.9-0.6S8.1,128.7,7.6,128.7z"/>
	<path class="st1" d="M13,127.4h1.6c0.2,0,0.3,0,0.4,0.1c0.1,0.1,0.2,0.2,0.2,0.3L18,135c0.1,0.3,0.2,0.5,0.2,0.8
		c0.1,0.3,0.1,0.5,0.2,0.8c0.1-0.3,0.1-0.5,0.2-0.8c0.1-0.3,0.1-0.5,0.3-0.8l2.9-7.2c0-0.1,0.1-0.2,0.2-0.3c0.1-0.1,0.2-0.1,0.4-0.1
		h1.5l-4.5,11.1h-1.8L13,127.4z"/>
	<path class="st1" d="M29.8,127.2c0.7,0,1.3,0.1,1.8,0.3c0.6,0.2,1.1,0.5,1.5,1c0.4,0.4,0.7,0.9,1,1.6c0.2,0.6,0.3,1.3,0.3,2.1
		c0,0.3,0,0.5-0.1,0.6s-0.2,0.2-0.4,0.2h-7.4c0,0.7,0.1,1.3,0.3,1.8c0.2,0.5,0.4,1,0.7,1.3c0.3,0.3,0.7,0.6,1.1,0.8
		c0.4,0.2,0.9,0.3,1.4,0.3c0.5,0,0.9-0.1,1.3-0.2c0.4-0.1,0.7-0.2,0.9-0.4s0.5-0.3,0.6-0.4c0.2-0.1,0.3-0.2,0.4-0.2
		c0.2,0,0.3,0.1,0.4,0.2l0.6,0.7c-0.2,0.3-0.5,0.5-0.9,0.8c-0.3,0.2-0.7,0.4-1.1,0.5c-0.4,0.1-0.8,0.2-1.2,0.3
		c-0.4,0.1-0.8,0.1-1.2,0.1c-0.8,0-1.5-0.1-2.1-0.4c-0.6-0.3-1.2-0.6-1.7-1.1c-0.5-0.5-0.8-1.1-1.1-1.9c-0.3-0.7-0.4-1.6-0.4-2.6
		c0-0.8,0.1-1.5,0.4-2.2s0.6-1.3,1-1.8c0.4-0.5,1-0.9,1.6-1.2C28.3,127.4,29,127.2,29.8,127.2z M29.8,128.7c-0.9,0-1.7,0.3-2.2,0.8
		c-0.5,0.5-0.9,1.3-1,2.3h6.1c0-0.5-0.1-0.9-0.2-1.2c-0.1-0.4-0.3-0.7-0.5-1c-0.2-0.3-0.5-0.5-0.9-0.6S30.3,128.7,29.8,128.7z"/>
	<path class="st1" d="M36.9,138.6v-11.1H38c0.2,0,0.4,0,0.4,0.1c0.1,0.1,0.1,0.2,0.2,0.4l0.1,1.7c0.4-0.8,0.9-1.4,1.4-1.8
		s1.2-0.7,2-0.7c0.3,0,0.6,0,0.8,0.1c0.2,0.1,0.5,0.2,0.7,0.3l-0.3,1.5c-0.1,0.2-0.2,0.3-0.3,0.3c-0.1,0-0.3,0-0.5-0.1
		s-0.5-0.1-0.9-0.1c-0.7,0-1.3,0.2-1.7,0.6c-0.5,0.4-0.8,1-1.1,1.7v7.1H36.9z"/>
	<path class="st1" d="M49,141.9c-0.1,0.1-0.1,0.3-0.2,0.4s-0.3,0.1-0.5,0.1h-1.5l2-4.4l-4.6-10.5H46c0.2,0,0.3,0,0.4,0.1
		c0.1,0.1,0.2,0.2,0.2,0.3l3,7c0.1,0.2,0.1,0.3,0.2,0.5c0,0.2,0.1,0.3,0.1,0.5c0.1-0.2,0.1-0.3,0.2-0.5c0.1-0.2,0.1-0.3,0.2-0.5
		l2.9-7c0-0.1,0.1-0.2,0.2-0.3c0.1-0.1,0.2-0.1,0.3-0.1h1.6L49,141.9z"/>
	<path class="st1" d="M60.4,138.7c-0.9,0-1.6-0.2-2-0.7c-0.5-0.5-0.7-1.2-0.7-2.1v-6.8h-1.3c-0.1,0-0.2,0-0.3-0.1s-0.1-0.2-0.1-0.3
		v-0.8l1.8-0.2l0.5-3.4c0-0.1,0.1-0.2,0.1-0.3c0.1-0.1,0.2-0.1,0.3-0.1h1v3.8h3.2v1.4h-3.2v6.7c0,0.5,0.1,0.8,0.3,1
		c0.2,0.2,0.5,0.3,0.9,0.3c0.2,0,0.4,0,0.5-0.1c0.2-0.1,0.3-0.1,0.4-0.2c0.1-0.1,0.2-0.1,0.3-0.2c0.1-0.1,0.1-0.1,0.2-0.1
		c0.1,0,0.2,0.1,0.3,0.2l0.6,0.9c-0.3,0.3-0.7,0.6-1.2,0.7C61.4,138.7,60.9,138.7,60.4,138.7z"/>
	<path class="st1" d="M65.2,138.6v-16.2h2v6.6c0.5-0.5,1-0.9,1.6-1.2c0.6-0.3,1.2-0.5,2-0.5c0.6,0,1.1,0.1,1.6,0.3
		c0.5,0.2,0.9,0.5,1.2,0.9c0.3,0.4,0.5,0.8,0.7,1.3c0.2,0.5,0.2,1.1,0.2,1.7v7.1h-2v-7.1c0-0.8-0.2-1.5-0.6-2
		c-0.4-0.5-1-0.7-1.8-0.7c-0.6,0-1.1,0.1-1.6,0.4c-0.5,0.3-1,0.7-1.4,1.1v8.2H65.2z"/>
	<path class="st1" d="M80.1,123.9c0,0.2,0,0.4-0.1,0.5c-0.1,0.2-0.2,0.3-0.3,0.4c-0.1,0.1-0.3,0.2-0.4,0.3c-0.2,0.1-0.3,0.1-0.5,0.1
		s-0.4,0-0.5-0.1c-0.2-0.1-0.3-0.2-0.4-0.3c-0.1-0.1-0.2-0.3-0.3-0.4s-0.1-0.3-0.1-0.5c0-0.2,0-0.4,0.1-0.5c0.1-0.2,0.2-0.3,0.3-0.5
		c0.1-0.1,0.3-0.2,0.4-0.3c0.2-0.1,0.3-0.1,0.5-0.1s0.4,0,0.5,0.1c0.2,0.1,0.3,0.2,0.4,0.3c0.1,0.1,0.2,0.3,0.3,0.5
		C80.1,123.6,80.1,123.7,80.1,123.9z M79.7,127.4v11.1h-2v-11.1H79.7z"/>
	<path class="st1" d="M83.1,138.6v-11.1h1.2c0.3,0,0.5,0.1,0.5,0.4L85,129c0.5-0.5,1-1,1.6-1.3c0.6-0.3,1.3-0.5,2.1-0.5
		c0.6,0,1.1,0.1,1.6,0.3c0.5,0.2,0.9,0.5,1.2,0.9c0.3,0.4,0.5,0.8,0.7,1.3c0.2,0.5,0.2,1.1,0.2,1.7v7.1h-2v-7.1c0-0.8-0.2-1.5-0.6-2
		c-0.4-0.5-1-0.7-1.8-0.7c-0.6,0-1.1,0.1-1.6,0.4c-0.5,0.3-1,0.7-1.4,1.1v8.2H83.1z"/>
	<path class="st1" d="M99.1,127.2c0.5,0,0.9,0.1,1.4,0.2c0.4,0.1,0.8,0.3,1.1,0.5h3v0.7c0,0.2-0.2,0.4-0.5,0.5l-1.3,0.2
		c0.2,0.5,0.4,1,0.4,1.6c0,0.5-0.1,1-0.3,1.5c-0.2,0.4-0.5,0.8-0.9,1.1c-0.4,0.3-0.8,0.6-1.3,0.7c-0.5,0.2-1.1,0.3-1.7,0.3
		c-0.5,0-1-0.1-1.5-0.2c-0.2,0.2-0.4,0.3-0.5,0.5c-0.1,0.2-0.2,0.3-0.2,0.5c0,0.3,0.1,0.5,0.3,0.6c0.2,0.1,0.5,0.2,0.8,0.3
		s0.8,0.1,1.2,0.1c0.4,0,0.9,0,1.4,0s0.9,0,1.4,0.1c0.4,0.1,0.8,0.2,1.2,0.4s0.6,0.4,0.8,0.8c0.2,0.3,0.3,0.8,0.3,1.3
		c0,0.5-0.1,1-0.4,1.4c-0.2,0.5-0.6,0.9-1,1.2s-1,0.6-1.6,0.8c-0.6,0.2-1.4,0.3-2.2,0.3s-1.5-0.1-2.1-0.2c-0.6-0.2-1.1-0.4-1.5-0.6
		s-0.7-0.6-0.9-0.9c-0.2-0.4-0.3-0.7-0.3-1.1c0-0.5,0.2-1,0.5-1.4c0.3-0.4,0.8-0.7,1.4-0.9c-0.3-0.1-0.6-0.3-0.8-0.6s-0.3-0.6-0.3-1
		c0-0.2,0-0.3,0.1-0.5c0.1-0.2,0.1-0.3,0.3-0.5c0.1-0.2,0.3-0.3,0.4-0.5c0.2-0.2,0.4-0.3,0.6-0.4c-0.6-0.3-1-0.7-1.3-1.2
		c-0.3-0.5-0.5-1.1-0.5-1.8c0-0.5,0.1-1,0.3-1.5c0.2-0.4,0.5-0.8,0.9-1.1s0.8-0.6,1.3-0.7C97.9,127.3,98.5,127.2,99.1,127.2z
		 M102.6,139.1c0-0.3-0.1-0.5-0.2-0.7s-0.4-0.3-0.6-0.4c-0.3-0.1-0.6-0.2-0.9-0.2s-0.7-0.1-1.1-0.1c-0.4,0-0.8,0-1.2,0
		s-0.8,0-1.1-0.1c-0.4,0.2-0.8,0.4-1,0.7c-0.3,0.3-0.4,0.6-0.4,1c0,0.2,0.1,0.5,0.2,0.7s0.3,0.4,0.6,0.6c0.3,0.2,0.6,0.3,1,0.4
		c0.4,0.1,0.9,0.1,1.4,0.1c0.5,0,1,0,1.4-0.1c0.4-0.1,0.8-0.2,1.1-0.4c0.3-0.2,0.5-0.4,0.7-0.6C102.5,139.7,102.6,139.4,102.6,139.1
		z M99.1,133.1c0.4,0,0.7-0.1,1.1-0.2c0.3-0.1,0.6-0.3,0.8-0.5c0.2-0.2,0.4-0.4,0.5-0.7c0.1-0.3,0.2-0.6,0.2-0.9
		c0-0.7-0.2-1.2-0.6-1.6c-0.4-0.4-1-0.6-1.8-0.6c-0.8,0-1.4,0.2-1.8,0.6c-0.4,0.4-0.6,0.9-0.6,1.6c0,0.3,0.1,0.6,0.2,0.9
		c0.1,0.3,0.3,0.5,0.5,0.7c0.2,0.2,0.5,0.4,0.8,0.5C98.4,133.1,98.7,133.1,99.1,133.1z"/>
</g>
</svg>
