<svg xmlns="http://www.w3.org/2000/svg" width="48" height="48" fill="none" viewBox="0 0 48 48">
    <path fill="#F47958" fill-rule="evenodd" d="M24 0C10.745 0 0 10.745 0 24s10.745 24 24 24 24-10.745 24-24S37.255 0 24 0zm-5.277 11.277c1.366-.062 1.802-.077 5.278-.077h-.004c3.478 0 3.912.015 5.278.077 1.362.063 2.293.279 3.109.595.843.327 1.555.764 2.267 1.476.712.711 1.149 1.426 1.477 2.268.315.813.53 1.744.595 3.106.061 1.366.077 1.802.077 5.278 0 3.476-.016 3.912-.077 5.277-.064 1.362-.28 2.293-.595 3.107-.328.841-.765 1.555-1.477 2.267-.712.712-1.425 1.15-2.266 1.477-.815.317-1.746.532-3.108.595-1.366.062-1.8.077-5.277.077-3.476 0-3.912-.015-5.278-.077-1.362-.063-2.293-.278-3.107-.595-.841-.327-1.556-.765-2.267-1.477-.712-.712-1.149-1.426-1.476-2.268-.316-.814-.532-1.744-.595-3.106-.061-1.366-.077-1.8-.077-5.277 0-3.476.016-3.913.077-5.278.061-1.362.277-2.293.595-3.107.328-.841.765-1.556 1.477-2.267.712-.712 1.426-1.15 2.268-1.476.813-.316 1.744-.532 3.106-.595z" clip-rule="evenodd"/>
    <path fill="#F47958" fill-rule="evenodd" d="M22.853 13.507h1.148c3.418 0 3.823.012 5.173.073 1.248.057 1.925.266 2.376.441.598.232 1.023.51 1.471.957.448.448.725.875.958 1.472.175.451.384 1.128.44 2.376.062 1.35.075 1.755.075 5.171 0 3.416-.013 3.822-.074 5.17-.057 1.249-.266 1.926-.441 2.377-.232.597-.51 1.022-.958 1.47-.448.448-.873.726-1.47.958-.451.176-1.13.384-2.377.44-1.35.062-1.755.075-5.173.075s-3.823-.013-5.172-.074c-1.248-.058-1.925-.266-2.377-.442-.597-.232-1.024-.509-1.472-.957-.448-.448-.725-.874-.958-1.471-.175-.45-.384-1.128-.44-2.376-.062-1.35-.074-1.755-.074-5.173s.012-3.821.073-5.17c.058-1.249.266-1.926.441-2.377.232-.598.51-1.024.958-1.472.448-.448.875-.726 1.472-.958.451-.176 1.129-.384 2.377-.442 1.18-.053 1.638-.069 4.024-.072v.004zm7.98 2.125c-.847 0-1.535.687-1.535 1.536 0 .848.688 1.535 1.536 1.535.848 0 1.536-.688 1.536-1.535 0-.849-.688-1.537-1.536-1.537v.001zM17.429 24c0-3.63 2.943-6.573 6.573-6.573 3.63 0 6.573 2.943 6.573 6.573 0 3.63-2.943 6.572-6.573 6.572-3.63 0-6.573-2.942-6.573-6.572z" clip-rule="evenodd"/>
    <path fill="#F47958" d="M24.001 19.733c2.357 0 4.267 1.91 4.267 4.267 0 2.356-1.91 4.267-4.267 4.267-2.356 0-4.267-1.91-4.267-4.267 0-2.356 1.91-4.267 4.267-4.267z"/>
</svg>
